<svg width="40" height="40" viewBox="0 0 40 40" fill="none" xmlns="http://www.w3.org/2000/svg">
<path d="M17.3802 34.6689C17.3002 34.8189 17.1502 34.8989 16.9902 34.8989C16.9102 34.8989 16.8402 34.8789 16.7702 34.8389C14.1802 33.4389 11.4902 32.9389 8.31019 33.2689C8.06019 33.2989 7.84019 33.1189 7.81019 32.8789C7.79019 32.6389 7.96019 32.4189 8.21019 32.3889C11.5902 32.0389 14.4502 32.5789 17.2102 34.0689C17.4202 34.1889 17.5002 34.4589 17.3802 34.6689Z" fill="#BDB3D2"/>
<path d="M17.3802 31.5212C17.3002 31.6712 17.1502 31.7512 16.9902 31.7512C16.9102 31.7512 16.8402 31.7312 16.7702 31.7012C14.1802 30.2912 11.4902 29.7912 8.31019 30.1212C8.06019 30.1512 7.84019 29.9712 7.81019 29.7312C7.79019 29.4912 7.96019 29.2712 8.21019 29.2512C11.5902 28.8912 14.4502 29.4312 17.2102 30.9212C17.4202 31.0412 17.5002 31.3112 17.3802 31.5212Z" fill="#BDB3D2"/>
<path d="M17.3802 28.3699C17.3002 28.5199 17.1502 28.5999 16.9902 28.5999C16.9102 28.5999 16.8402 28.5799 16.7702 28.5499C14.1802 27.1399 11.4902 26.6399 8.31019 26.9699C8.06019 26.9999 7.84019 26.8199 7.81019 26.5799C7.79019 26.3399 7.96019 26.1199 8.21019 26.0999C11.5902 25.7499 14.4502 26.2799 17.2102 27.7699C17.4202 27.8899 17.5002 28.1599 17.3802 28.3699Z" fill="#BDB3D2"/>
<path d="M17.3802 25.2304C17.3002 25.3704 17.1502 25.4504 16.9902 25.4504C16.9102 25.4504 16.8402 25.4404 16.7702 25.4004C14.1802 23.9904 11.4902 23.4904 8.31019 23.8304C8.06019 23.8504 7.84019 23.6804 7.81019 23.4304C7.79019 23.1904 7.96019 22.9704 8.21019 22.9504C11.5902 22.6004 14.4502 23.1304 17.2102 24.6304C17.4202 24.7404 17.5002 25.0104 17.3802 25.2304Z" fill="#BDB3D2"/>
<path d="M33.1892 23.4304C33.1592 23.6804 32.9392 23.8504 32.6892 23.8304C29.5092 23.4904 26.8192 23.9904 24.2292 25.4004C24.1592 25.4404 24.0792 25.4504 24.0092 25.4504C23.8492 25.4504 23.6992 25.3704 23.6192 25.2304C23.4992 25.0104 23.5692 24.7404 23.7892 24.6304C26.5492 23.1304 29.4092 22.6004 32.7892 22.9504C33.0292 22.9704 33.2092 23.1904 33.1892 23.4304Z" fill="#BDB3D2"/>
<path d="M33.1892 26.5799C33.1592 26.8199 32.9392 26.9999 32.6892 26.9699C29.5092 26.6399 26.8192 27.1399 24.2292 28.5499C24.1592 28.5799 24.0792 28.5999 24.0092 28.5999C23.8492 28.5999 23.6992 28.5199 23.6192 28.3699C23.4992 28.1599 23.5692 27.8899 23.7892 27.7699C26.5492 26.2799 29.4092 25.7499 32.7892 26.0999C33.0292 26.1199 33.2092 26.3399 33.1892 26.5799Z" fill="#BDB3D2"/>
<path d="M33.1892 29.7312C33.1592 29.9712 32.9392 30.1512 32.6892 30.1212C29.5092 29.7912 26.8192 30.2912 24.2292 31.7012C24.1592 31.7312 24.0792 31.7512 24.0092 31.7512C23.8492 31.7512 23.6992 31.6712 23.6192 31.5212C23.4992 31.3112 23.5692 31.0412 23.7892 30.9212C26.5492 29.4312 29.4092 28.8912 32.7892 29.2512C33.0292 29.2712 33.2092 29.4912 33.1892 29.7312Z" fill="#BDB3D2"/>
<path d="M33.1892 32.8789C33.1592 33.1189 32.9392 33.2989 32.6892 33.2689C29.5092 32.9389 26.8192 33.4389 24.2292 34.8389C24.1592 34.8789 24.0792 34.8989 24.0092 34.8989C23.8492 34.8989 23.6992 34.8189 23.6192 34.6689C23.4992 34.4589 23.5692 34.1889 23.7892 34.0689C26.5492 32.5789 29.4092 32.0389 32.7892 32.3889C33.0292 32.4189 33.2092 32.6389 33.1892 32.8789Z" fill="#BDB3D2"/>
<path d="M40 20C40 8.95 31.04 0 20 0C14.47 0 9.47 2.24 5.86 5.86C2.24 9.47 0 14.47 0 20C0 24.5 1.49 28.66 4 32V21.23C4.14 21.21 4.51 21.2 4.65 21.18V20.14C4.65 19.63 5.03 19.21 5.54 19.16C6.77 19.03 9.1 18.88 11.63 19.13C11.92 19.16 12.22 19.2 12.52 19.24C15.33 19.63 18.19 20.57 20 22.64V40C20.33 40 20.67 39.99 21 39.97V22.64C22.8 20.57 25.67 19.63 28.47 19.24C28.77 19.2 29.07 19.16 29.37 19.13C31.9 18.88 34.23 19.03 35.45 19.16C35.97 19.21 36.34 19.63 36.34 20.14V21.18C36.49 21.2 36.85 21.21 37 21.23V30.53C38.9 27.47 40 23.86 40 20ZM23.88 13.33L21.93 14.86C21.83 14.94 21.78 15.08 21.82 15.2L22.57 17.6C22.65 17.88 22.35 18.11 22.12 17.94L20.17 16.46C20.07 16.38 19.93 16.38 19.83 16.45L17.88 17.94C17.65 18.11 17.34 17.87 17.43 17.59L18.18 15.19C18.22 15.06 18.17 14.91 18.07 14.84L16.12 13.33C15.89 13.16 16.01 12.73 16.29 12.73H18.7C18.83 12.73 18.94 12.69 18.98 12.56L19.72 10.21C19.81 9.93 20.19 9.92 20.27 10.2L21.02 12.57C21.06 12.7 21.17 12.73 21.3 12.73H23.71C23.99 12.73 24.11 13.16 23.88 13.33Z" fill="#BDB3D2"/>
</svg>
