<svg width="50" height="50" viewBox="0 0 50 50" fill="none" xmlns="http://www.w3.org/2000/svg">
<g id="Group 39758">
<rect id="Rectangle 7947" width="50" height="50" rx="25" fill="#341477"/>
<g id="Group">
<path id="Vector" d="M29.3636 34.4572C29.2209 34.6002 29.1203 34.7797 29.073 34.9761L28.6219 36.8532V36.853C28.5793 37.0306 28.632 37.2173 28.761 37.3463C28.8902 37.4755 29.0769 37.5282 29.2543 37.4856L31.1316 37.0345C31.3279 36.9872 31.5073 36.8866 31.65 36.7439L38.7384 29.6556L36.4517 27.3691L29.3636 34.4572ZM31.3468 35.5073L30.6002 34.7607L36.345 29.0164L37.0916 29.763L31.3468 35.5073Z" fill="white"/>
<path id="Vector_2" d="M39.1725 26.9314C38.8694 26.6284 38.4582 26.458 38.0294 26.458C37.6006 26.458 37.1895 26.6284 36.8862 26.9314L36.8047 27.0129L39.0911 29.2994L39.1726 29.2179H39.1724C39.4757 28.9148 39.6461 28.5034 39.6461 28.0746C39.6461 27.6458 39.4757 27.2347 39.1724 26.9314L39.1725 26.9314Z" fill="white"/>
<path id="Vector_3" d="M32.8758 29.2619C32.6975 28.3986 32.1829 27.4178 31.3671 27.0152C30.5716 26.6223 27.3014 25.6474 26.5433 25.251C26.5454 27.0486 25.9452 28.9247 24.6617 30.9072L24.4233 27.7361L24.9613 27.1396C25.0813 26.9273 25.1843 26.7059 25.2692 26.4774C25.3118 26.356 25.293 26.2212 25.2185 26.1164C25.1439 26.0114 25.0233 25.9489 24.8945 25.9491H22.5489C22.4203 25.9491 22.2997 26.0116 22.2251 26.1166C22.1508 26.2215 22.132 26.356 22.1746 26.4774C22.2595 26.7059 22.3627 26.9273 22.4827 27.1396L23.0203 27.7361L22.7819 30.9072C21.499 28.9246 20.8984 27.0487 20.9009 25.251C20.1426 25.6474 16.8727 26.6223 16.0771 27.0152C15.2613 27.4178 14.7467 28.3987 14.5684 29.2619L14.3261 32.684L14.166 37.0828C14.166 37.0843 14.1662 37.0857 14.1666 37.0869C14.2225 37.3304 14.44 37.5024 14.6898 37.5006H27.5534C27.4551 37.2059 27.442 36.8893 27.5155 36.5875L27.9666 34.7106V34.7104C28.0627 34.3107 28.2674 33.9451 28.558 33.6542L32.8807 29.3315L32.8758 29.2619Z" fill="white"/>
<path id="Vector_4" d="M19.7051 20.2097C19.8024 20.2701 19.8905 20.344 19.967 20.4292C20.0543 20.5682 20.1063 20.7263 20.1186 20.8901C20.2525 21.8122 20.6272 22.6824 21.2051 23.4137C21.7909 24.1457 22.6456 24.6126 23.5783 24.7099C23.6334 24.7148 23.6889 24.7162 23.7442 24.7177C23.7993 24.7162 23.8546 24.7148 23.9099 24.7099C24.8426 24.6126 25.6973 24.1457 26.2831 23.4137C26.8608 22.6825 27.2355 21.8122 27.3697 20.8901C27.3819 20.7263 27.434 20.5682 27.5212 20.4292C27.5978 20.344 27.686 20.2701 27.7833 20.2097C28.2188 19.8837 28.5027 19.3945 28.5696 18.8547C28.6122 18.498 28.4496 18.0305 28.0896 18.0322C28.2412 17.1543 28.3755 16.2445 28.1654 15.3775H28.1652C27.8853 14.3086 27.1524 13.4152 26.1587 12.932C25.4082 12.5716 24.5707 12.4324 23.7442 12.5307C22.9175 12.4324 22.0801 12.5716 21.3298 12.932C20.3358 13.4152 19.6027 14.3087 19.3228 15.3775C19.1129 16.2445 19.2471 17.1541 19.3988 18.0322C19.0386 18.0305 18.876 18.498 18.9188 18.8547H18.9186C18.9856 19.3945 19.2696 19.8839 19.7051 20.2097Z" fill="white"/>
</g>
</g>
</svg>
