<svg width="50" height="50" viewBox="0 0 50 50" fill="none" xmlns="http://www.w3.org/2000/svg">
<g id="Group 39759">
<rect id="Rectangle 7946" width="50" height="50" rx="25" fill="#341477"/>
<path id="Vector" d="M33.7037 26.5952C33.7037 26.5952 30.2518 21.8106 25.4948 21.8106C20.8469 21.8106 16.2523 26.5952 16.2523 26.5952L13.6716 25.1308V29.4269C14.0783 29.6149 14.376 30.1239 14.376 30.7401C14.376 31.3624 14.0723 31.8723 13.6596 32.0563L14.4226 34.9493H12.1704L12.9402 32.0318C12.5703 31.8182 12.3117 31.3215 12.3117 30.7401C12.3117 30.1709 12.5628 29.6865 12.9214 29.4657V24.7047L9.16797 22.5771L25.6827 12.5L40.8346 22.7038L33.7037 26.5952ZM25.3069 24.2346C30.0924 24.2346 32.4378 27.6784 32.4378 27.6784V34.8216C32.4378 34.8216 29.9984 37.5 24.9318 37.5C19.8651 37.5 18.176 34.8216 18.176 34.8216V27.6784C18.176 27.6784 20.5214 24.2346 25.3069 24.2346ZM25.2129 35.9692C28.5296 35.9692 31.2185 35.0546 31.2185 33.9284C31.2185 32.8023 28.5296 31.8877 25.2129 31.8877C21.8963 31.8877 19.2081 32.8023 19.2081 33.9284C19.2081 35.0546 21.8963 35.9692 25.2129 35.9692Z" fill="white"/>
</g>
</svg>
