<svg width="40" height="40" viewBox="0 0 40 40" fill="none" xmlns="http://www.w3.org/2000/svg">
<path d="M20 0C14.48 0 9.48 2.24 5.86 5.86C2.24 9.48 0 14.48 0 20C0 25.52 2.24 30.52 5.86 34.14C8.73 37.01 12.47 39.02 16.66 39.72C16.38 39.21 16.15 38.63 16 38H24C23.85 38.63 23.62 39.21 23.34 39.72C27.53 39.02 31.27 37.01 34.14 34.14C37.76 30.52 40 25.52 40 20C40 8.95 31.05 0 20 0ZM18.9 10.72C18.9 10.32 19.24 10 19.65 10C20.06 10 20.4 10.32 20.4 10.72V14.09C20.4 14.49 20.07 14.82 19.65 14.82C19.23 14.82 18.9 14.49 18.9 14.09V10.72ZM8.24 25.9H4.75C4.34 25.9 4 25.57 4 25.17C4 24.77 4.34 24.45 4.75 24.45H8.24C8.66 24.45 8.99 24.77 8.99 25.17C8.99 25.57 8.66 25.9 8.24 25.9ZM10.64 17.85C10.5 17.98 10.31 18.06 10.11 18.06C9.91 18.06 9.72 17.99 9.58 17.85L7.11 15.46C6.82 15.18 6.82 14.73 7.11 14.44C7.4 14.16 7.88 14.16 8.17 14.44L10.64 16.83C10.93 17.11 10.93 17.57 10.64 17.85ZM26.87 27.25C24.01 31.53 24 33.97 24 34H16C16 34 15.99 31.53 13.13 27.25C10.1 22.71 13.41 16.01 20 16C26.59 16.01 29.9 22.71 26.87 27.25ZM29.19 18.06C28.78 18.06 28.45 17.74 28.45 17.34C28.45 17.15 28.52 16.96 28.66 16.83L31.14 14.44C31.43 14.16 31.9 14.16 32.19 14.44C32.49 14.73 32.49 15.18 32.19 15.46L29.72 17.85C29.58 17.98 29.39 18.06 29.19 18.06ZM34.55 25.9H31.06C30.64 25.9 30.31 25.57 30.31 25.17C30.31 24.77 30.64 24.45 31.06 24.45H34.55C34.97 24.45 35.3 24.77 35.3 25.17C35.3 25.57 34.97 25.9 34.55 25.9Z" fill="#BDB3D2"/>
</svg>
