<svg width="652" height="463" viewBox="0 0 652 463" fill="none" xmlns="http://www.w3.org/2000/svg">
<rect x="131.935" y="106.935" width="476.043" height="324.532" rx="13.0935" stroke="#E0E0E0" stroke-width="1.8705" stroke-dasharray="9.35 9.35"/>
<rect x="219" y="136" width="419.914" height="326.403" rx="10" fill="#F6F6FA"/>
<rect x="251.869" y="216.678" width="354.174" height="9.35252" rx="4.67626" fill="#EFEFF3"/>
<rect x="251.869" y="257" width="354.174" height="9.35252" rx="4.67626" fill="#EFEFF3"/>
<rect x="251.869" y="297" width="354.174" height="9.35252" rx="4.67626" fill="#EFEFF3"/>
<rect x="251.869" y="337" width="354.174" height="9.35252" rx="4.67626" fill="#EFEFF3"/>
<rect x="251.869" y="377" width="354.174" height="9.35252" rx="4.67626" fill="#EFEFF3"/>
<rect x="251.869" y="417" width="354.174" height="9.35252" rx="4.67626" fill="#EFEFF3"/>
<path d="M625.842 80.0001C619.84 80.0288 614.033 82.1361 609.409 85.9635C604.785 89.7909 601.63 95.102 600.481 100.993C599.331 106.884 600.258 112.992 603.104 118.277C605.95 123.562 610.539 127.697 616.09 129.98C621.641 132.263 627.812 132.553 633.552 130.799C639.293 129.045 644.248 125.357 647.576 120.362C650.904 115.366 652.398 109.372 651.805 103.399C651.212 97.4262 648.567 91.8433 644.322 87.6001C641.892 85.1809 639.009 83.2645 635.838 81.9604C632.667 80.6563 629.27 79.9902 625.842 80.0001ZM637.699 108.456H628.214V117.941C628.214 118.57 627.964 119.173 627.519 119.618C627.074 120.063 626.471 120.313 625.842 120.313C625.213 120.313 624.61 120.063 624.165 119.618C623.721 119.173 623.471 118.57 623.471 117.941V108.456H613.986C613.357 108.456 612.754 108.206 612.309 107.762C611.864 107.317 611.614 106.714 611.614 106.085C611.614 105.456 611.864 104.852 612.309 104.408C612.754 103.963 613.357 103.713 613.986 103.713H623.471V94.2281C623.471 93.5991 623.721 92.9959 624.165 92.5512C624.61 92.1065 625.213 91.8566 625.842 91.8566C626.471 91.8566 627.074 92.1065 627.519 92.5512C627.964 92.9959 628.214 93.5991 628.214 94.2281V103.713H637.699C638.328 103.713 638.931 103.963 639.376 104.408C639.82 104.852 640.07 105.456 640.07 106.085C640.07 106.714 639.82 107.317 639.376 107.762C638.931 108.206 638.328 108.456 637.699 108.456Z" fill="#341477"/>
<path d="M233.8 404H194.2C193.617 404 193.057 404.232 192.644 404.644C192.232 405.057 192 405.617 192 406.2V445.8C191.996 446.235 192.122 446.662 192.362 447.025C192.603 447.388 192.946 447.67 193.349 447.836C193.751 448.002 194.194 448.043 194.621 447.955C195.047 447.866 195.437 447.652 195.74 447.34L204.32 439.2H233.8C234.384 439.2 234.943 438.968 235.356 438.556C235.768 438.143 236 437.583 236 437V406.2C236 405.617 235.768 405.057 235.356 404.644C234.943 404.232 234.384 404 233.8 404ZM215.54 427.54C215.134 427.955 214.58 428.192 214 428.2H205.2C204.617 428.2 204.057 427.968 203.644 427.556C203.232 427.143 203 426.583 203 426C203.027 425.425 203.267 424.881 203.674 424.474C204.081 424.067 204.625 423.827 205.2 423.8H214C214.435 423.796 214.862 423.922 215.225 424.162C215.588 424.402 215.871 424.746 216.036 425.149C216.202 425.551 216.243 425.994 216.155 426.42C216.067 426.847 215.852 427.237 215.54 427.54ZM224.34 418.74C223.934 419.155 223.38 419.392 222.8 419.4H205.2C204.617 419.4 204.057 419.168 203.644 418.756C203.232 418.343 203 417.783 203 417.2C203.027 416.625 203.267 416.081 203.674 415.674C204.081 415.267 204.625 415.027 205.2 415H222.8C223.235 414.996 223.662 415.122 224.025 415.362C224.388 415.602 224.671 415.946 224.836 416.349C225.002 416.751 225.043 417.194 224.955 417.62C224.867 418.047 224.652 418.437 224.34 418.74Z" fill="#341477"/>
<g filter="url(#filter0_d_291_490)">
<path d="M506.493 52H65C62.2386 52 60 54.2386 60 57V369.211C60 371.972 62.2386 374.211 65 374.211H506.493C509.254 374.211 511.493 371.972 511.493 369.211V57C511.493 54.2386 509.254 52 506.493 52Z" fill="white"/>
<path d="M506.493 52.5H65C62.5147 52.5 60.5 54.5147 60.5 57V369.211C60.5 371.696 62.5147 373.711 65 373.711H506.493C508.978 373.711 510.993 371.696 510.993 369.211V57C510.993 54.5147 508.978 52.5 506.493 52.5Z" stroke="#E0E0E0"/>
</g>
<path d="M468 109H104C101.239 109 99 111.239 99 114C99 116.761 101.239 119 104 119H468C470.761 119 473 116.761 473 114C473 111.239 470.761 109 468 109Z" fill="#EFEFF3"/>
<path d="M468 229H104C101.239 229 99 231.239 99 234C99 236.761 101.239 239 104 239H468C470.761 239 473 236.761 473 234C473 231.239 470.761 229 468 229Z" fill="#EFEFF3"/>
<path d="M386 149H104C101.239 149 99 151.239 99 154C99 156.761 101.239 159 104 159H386C388.761 159 391 156.761 391 154C391 151.239 388.761 149 386 149Z" fill="#EFEFF3"/>
<path d="M468 269H104C101.239 269 99 271.239 99 274C99 276.761 101.239 279 104 279H468C470.761 279 473 276.761 473 274C473 271.239 470.761 269 468 269Z" fill="#EFEFF3"/>
<path d="M468 189H104C101.239 189 99 191.239 99 194C99 196.761 101.239 199 104 199H468C470.761 199 473 196.761 473 194C473 191.239 470.761 189 468 189Z" fill="#EFEFF3"/>
<path d="M468 309H104C101.239 309 99 311.239 99 314C99 316.761 101.239 319 104 319H468C470.761 319 473 316.761 473 314C473 311.239 470.761 309 468 309Z" fill="#EFEFF3"/>
<defs>
<filter id="filter0_d_291_490" x="0" y="0" width="571.493" height="442.211" filterUnits="userSpaceOnUse" color-interpolation-filters="sRGB">
<feFlood flood-opacity="0" result="BackgroundImageFix"/>
<feColorMatrix in="SourceAlpha" type="matrix" values="0 0 0 0 0 0 0 0 0 0 0 0 0 0 0 0 0 0 127 0" result="hardAlpha"/>
<feOffset dy="8"/>
<feGaussianBlur stdDeviation="30"/>
<feColorMatrix type="matrix" values="0 0 0 0 0 0 0 0 0 0 0 0 0 0 0 0 0 0 0.051 0"/>
<feBlend mode="normal" in2="BackgroundImageFix" result="effect1_dropShadow_291_490"/>
<feBlend mode="normal" in="SourceGraphic" in2="effect1_dropShadow_291_490" result="shape"/>
</filter>
</defs>
</svg>
