<svg width="40" height="40" viewBox="0 0 40 40" fill="none" xmlns="http://www.w3.org/2000/svg">
<path d="M20.0113 40C18.8756 39.9999 17.7419 39.904 16.6223 39.7133V16.3793C16.5896 15.6482 16.676 14.9166 16.8781 14.2132C16.9493 14.0009 17.0659 13.8066 17.2198 13.6439C17.3737 13.4812 17.5612 13.354 17.7693 13.2711C18.3692 13.0755 18.9993 12.9892 19.6296 13.0163C20.6066 12.9701 21.5815 13.1454 22.4812 13.5291C23.3809 13.9129 24.1821 14.4951 24.8249 15.2323C26.1782 17.021 26.8466 19.235 26.7093 21.4737C26.8531 23.7134 26.2036 25.9323 24.8749 27.741C24.3446 28.4244 23.6648 28.9771 22.8878 29.3569C22.1107 29.7367 21.2569 29.9335 20.3919 29.9321C19.7912 29.9382 19.192 29.8711 18.6075 29.7323C18.5925 29.7241 18.5757 29.7197 18.5586 29.7193C18.5116 29.7193 18.4677 29.7582 18.4297 29.8342C18.3807 29.9287 18.3546 30.0334 18.3538 30.1399C18.3538 30.3087 18.4047 30.3947 18.5066 30.3947C19.2921 30.5799 20.0977 30.6655 20.9045 30.6494C22.7211 30.6447 24.517 30.2634 26.1787 29.5294C27.8605 28.802 29.3181 27.6399 30.4019 26.1625C31.5319 24.5731 32.1131 22.6587 32.0574 20.7094C32.0574 17.768 31.0713 15.557 29.1281 14.1363C26.7638 12.5966 23.9717 11.8473 21.1543 11.9962C20.2081 11.9962 19.3759 12.0132 18.6825 12.0472C17.9621 12.0822 17.4206 12.1161 17.027 12.1471C15.917 12.247 14.9568 12.3 14.1725 12.3C13.2664 12.3 12.0495 12.266 10.5548 12.2001L7.90519 12.1491C7.80528 12.1491 7.75233 12.249 7.75233 12.4548C7.75233 12.6606 7.80329 12.7605 7.90519 12.7605C8.73871 12.7248 9.57269 12.8195 10.377 13.0413C10.6179 13.1169 10.839 13.2452 11.0241 13.417C11.2092 13.5888 11.3537 13.7997 11.447 14.0344C11.6677 14.7602 11.7624 15.5186 11.7268 16.2764V38.2086C7.23347 36.1671 3.65371 32.5362 1.67601 28.0145C-0.301687 23.4927 -0.537655 18.3994 1.01349 13.7141C2.56464 9.0289 5.79336 5.08263 10.0786 2.63437C14.3639 0.186106 19.4031 -0.591247 24.2269 0.451827C29.0508 1.4949 33.3186 4.28474 36.2096 8.28473C39.1005 12.2847 40.4104 17.2124 39.8873 22.1199C39.3642 27.0275 37.045 31.5683 33.3758 34.869C29.7067 38.1697 24.9466 39.9972 20.0113 40Z" fill="#341477"/>
</svg>
