<svg width="721" height="491" viewBox="0 0 721 491" fill="none" xmlns="http://www.w3.org/2000/svg">
<rect x="83.0825" y="113.254" width="537.073" height="366.138" rx="14.7721" stroke="#E0E0E0" stroke-width="2.11031" stroke-dasharray="10.55 10.55"/>
<rect x="51.4258" y="76.3242" width="539.183" height="368.249" rx="10" fill="#F6F6FA"/>
<rect y="358.999" width="229.025" height="56.4102" rx="28.2051" fill="#341477"/>
<path d="M31.5925 390.213V394.794H28.5971V381.495H33.2896C36.6406 381.495 38.316 382.908 38.316 385.733C38.316 387.069 37.8338 388.151 36.8693 388.979C35.911 389.802 34.6281 390.213 33.0207 390.213H31.5925ZM31.5925 383.795V387.941H32.7703C34.3654 387.941 35.1629 387.242 35.1629 385.845C35.1629 384.478 34.3654 383.795 32.7703 383.795H31.5925ZM50.8264 394.794H47.562L46.6161 391.836H41.8864L40.9498 394.794H37.704L42.5449 381.495H46.0968L50.8264 394.794ZM45.9298 389.536L44.5017 385.066C44.3966 384.732 44.3224 384.333 44.2791 383.869H44.2049C44.174 384.259 44.0967 384.645 43.9731 385.029L42.5263 389.536H45.9298ZM63.6428 394.794H60.2022L58.1342 391.372C57.9796 391.112 57.8312 390.88 57.689 390.676C57.5468 390.472 57.4015 390.299 57.2532 390.157C57.111 390.009 56.9595 389.897 56.7987 389.823C56.6442 389.743 56.4742 389.703 56.2887 389.703H55.4819V394.794H52.4864V381.495H57.2346C60.4619 381.495 62.0755 382.701 62.0755 385.112C62.0755 385.576 62.0044 386.005 61.8622 386.401C61.72 386.791 61.5191 387.143 61.2594 387.458C60.9998 387.774 60.6845 388.046 60.3135 388.274C59.9487 388.503 59.5407 388.683 59.0894 388.812V388.849C59.2872 388.911 59.4789 389.013 59.6643 389.155C59.8498 389.291 60.0291 389.452 60.2022 389.638C60.3753 389.823 60.5392 390.024 60.6937 390.241C60.8545 390.451 60.9998 390.658 61.1296 390.862L63.6428 394.794ZM55.4819 383.74V387.44H56.7802C57.4232 387.44 57.9394 387.254 58.3289 386.883C58.7246 386.506 58.9224 386.039 58.9224 385.483C58.9224 384.321 58.2269 383.74 56.8358 383.74H55.4819ZM76.589 394.794H73.3247L72.3787 391.836H67.6491L66.7124 394.794H63.4666L68.3075 381.495H71.8594L76.589 394.794ZM71.6925 389.536L70.2643 385.066C70.1592 384.732 70.085 384.333 70.0417 383.869H69.9675C69.9366 384.259 69.8594 384.645 69.7357 385.029L68.289 389.536H71.6925ZM85.937 383.934H81.2445V387.199H85.5568V389.628H81.2445V394.794H78.2491V381.495H85.937V383.934ZM99.2913 394.794H95.8508L93.7827 391.372C93.6281 391.112 93.4797 390.88 93.3375 390.676C93.1954 390.472 93.0501 390.299 92.9017 390.157C92.7595 390.009 92.608 389.897 92.4473 389.823C92.2927 389.743 92.1227 389.703 91.9372 389.703H91.1304V394.794H88.1349V381.495H92.8831C96.1104 381.495 97.7241 382.701 97.7241 385.112C97.7241 385.576 97.653 386.005 97.5108 386.401C97.3686 386.791 97.1676 387.143 96.908 387.458C96.6483 387.774 96.333 388.046 95.962 388.274C95.5973 388.503 95.1892 388.683 94.7379 388.812V388.849C94.9357 388.911 95.1274 389.013 95.3129 389.155C95.4983 389.291 95.6776 389.452 95.8508 389.638C96.0239 389.823 96.1877 390.024 96.3423 390.241C96.503 390.451 96.6483 390.658 96.7781 390.862L99.2913 394.794ZM91.1304 383.74V387.44H92.4287C93.0717 387.44 93.5879 387.254 93.9774 386.883C94.3731 386.506 94.571 386.039 94.571 385.483C94.571 384.321 93.8754 383.74 92.4844 383.74H91.1304ZM112.238 394.794H108.973L108.027 391.836H103.298L102.361 394.794H99.1151L103.956 381.495H107.508L112.238 394.794ZM107.341 389.536L105.913 385.066C105.808 384.732 105.734 384.333 105.69 383.869H105.616C105.585 384.259 105.508 384.645 105.384 385.029L103.938 389.536H107.341ZM113.286 394.284V391.316C113.823 391.768 114.408 392.108 115.038 392.336C115.669 392.559 116.306 392.67 116.949 392.67C117.326 392.67 117.653 392.636 117.932 392.568C118.216 392.5 118.451 392.407 118.637 392.29C118.828 392.166 118.97 392.024 119.063 391.863C119.156 391.696 119.202 391.517 119.202 391.326C119.202 391.066 119.128 390.834 118.98 390.63C118.831 390.426 118.627 390.237 118.368 390.064C118.114 389.891 117.811 389.724 117.459 389.564C117.106 389.403 116.726 389.239 116.318 389.072C115.279 388.639 114.503 388.111 113.99 387.486C113.483 386.862 113.23 386.107 113.23 385.223C113.23 384.531 113.369 383.937 113.647 383.443C113.925 382.942 114.303 382.531 114.779 382.209C115.261 381.888 115.817 381.653 116.448 381.505C117.079 381.35 117.746 381.273 118.451 381.273C119.143 381.273 119.756 381.316 120.287 381.403C120.825 381.483 121.32 381.61 121.771 381.783V384.556C121.548 384.401 121.304 384.265 121.038 384.148C120.779 384.03 120.51 383.934 120.232 383.86C119.953 383.78 119.675 383.721 119.397 383.684C119.125 383.647 118.865 383.628 118.618 383.628C118.278 383.628 117.969 383.662 117.691 383.73C117.412 383.792 117.177 383.882 116.986 383.999C116.794 384.117 116.646 384.259 116.541 384.426C116.436 384.587 116.383 384.769 116.383 384.973C116.383 385.196 116.442 385.396 116.559 385.576C116.677 385.749 116.844 385.916 117.06 386.077C117.276 386.231 117.539 386.386 117.848 386.54C118.157 386.689 118.507 386.843 118.896 387.004C119.428 387.227 119.904 387.465 120.324 387.718C120.751 387.965 121.116 388.247 121.419 388.562C121.722 388.877 121.953 389.239 122.114 389.647C122.275 390.049 122.355 390.519 122.355 391.057C122.355 391.799 122.213 392.423 121.929 392.93C121.65 393.431 121.27 393.839 120.788 394.154C120.306 394.463 119.743 394.686 119.1 394.822C118.463 394.958 117.789 395.026 117.079 395.026C116.349 395.026 115.653 394.964 114.992 394.84C114.337 394.717 113.768 394.531 113.286 394.284ZM132.519 394.794H124.544V381.495H132.213V383.934H127.539V386.893H131.889V389.322H127.539V392.364H132.519V394.794ZM140.272 395.026C138.368 395.026 136.816 394.408 135.617 393.171C134.417 391.928 133.818 390.312 133.818 388.321C133.818 386.219 134.427 384.519 135.645 383.22C136.863 381.922 138.476 381.273 140.486 381.273C142.384 381.273 143.917 381.894 145.085 383.137C146.26 384.379 146.847 386.018 146.847 388.052C146.847 390.142 146.238 391.826 145.02 393.106C143.809 394.386 142.226 395.026 140.272 395.026ZM140.402 383.851C139.351 383.851 138.516 384.247 137.898 385.038C137.28 385.823 136.971 386.865 136.971 388.163C136.971 389.48 137.28 390.522 137.898 391.288C138.516 392.055 139.326 392.438 140.328 392.438C141.36 392.438 142.18 392.067 142.786 391.326C143.391 390.577 143.694 389.542 143.694 388.219C143.694 386.84 143.401 385.767 142.813 385.001C142.226 384.234 141.422 383.851 140.402 383.851ZM166.276 394.794H163.253L157.772 386.438C157.45 385.95 157.228 385.582 157.104 385.335H157.067C157.117 385.805 157.141 386.522 157.141 387.486V394.794H154.313V381.495H157.54L162.817 389.591C163.058 389.956 163.281 390.318 163.485 390.676H163.522C163.472 390.367 163.448 389.758 163.448 388.849V381.495H166.276V394.794ZM174.938 395.026C173.034 395.026 171.482 394.408 170.282 393.171C169.083 391.928 168.483 390.312 168.483 388.321C168.483 386.219 169.092 384.519 170.31 383.22C171.528 381.922 173.142 381.273 175.151 381.273C177.049 381.273 178.582 381.894 179.751 383.137C180.926 384.379 181.513 386.018 181.513 388.052C181.513 390.142 180.904 391.826 179.686 393.106C178.474 394.386 176.891 395.026 174.938 395.026ZM175.068 383.851C174.017 383.851 173.182 384.247 172.564 385.038C171.945 385.823 171.636 386.865 171.636 388.163C171.636 389.48 171.945 390.522 172.564 391.288C173.182 392.055 173.992 392.438 174.993 392.438C176.026 392.438 176.845 392.067 177.451 391.326C178.057 390.577 178.36 389.542 178.36 388.219C178.36 386.84 178.066 385.767 177.479 385.001C176.891 384.234 176.088 383.851 175.068 383.851ZM201.127 381.495L197.612 394.794H194.292L192.085 386.262C191.968 385.817 191.897 385.319 191.872 384.769H191.835C191.779 385.375 191.699 385.873 191.594 386.262L189.331 394.794H185.872L182.375 381.495H185.649L187.522 390.352C187.603 390.729 187.661 391.236 187.699 391.873H187.754C187.779 391.397 187.869 390.877 188.023 390.315L190.434 381.495H193.643L195.822 390.426C195.903 390.754 195.974 391.23 196.036 391.854H196.073C196.098 391.366 196.162 390.871 196.268 390.37L198.104 381.495H201.127Z" fill="white"/>
<path d="M665.525 432.967C665.525 464.435 640.015 489.945 608.547 489.945C577.079 489.945 551.569 464.435 551.569 432.967C551.569 401.499 577.079 375.989 608.547 375.989C640.015 375.989 665.525 401.499 665.525 432.967Z" fill="white" stroke="#E0E0E0" stroke-width="2.11031"/>
<path d="M624.027 429.705L598.772 406.817C598.619 406.695 598.435 406.619 598.242 406.595C598.048 406.572 597.851 406.603 597.674 406.685C597.497 406.767 597.346 406.896 597.238 407.059C597.129 407.221 597.068 407.411 597.062 407.606L592.721 442.201C592.721 442.729 593.248 443.122 593.642 442.858L603.639 437.596L611.532 459.169L620.871 455.355L613.109 433.915L623.766 430.89C623.894 430.867 624.012 430.807 624.105 430.717C624.199 430.627 624.264 430.512 624.292 430.385C624.32 430.259 624.31 430.127 624.263 430.006C624.216 429.885 624.135 429.781 624.029 429.706L624.027 429.705Z" fill="#341477"/>
<path d="M358.17 387.202C358.17 377.856 350.594 370.279 341.247 370.279C331.901 370.279 324.324 377.856 324.324 387.202C324.324 396.549 331.901 404.125 341.247 404.125C350.594 404.125 358.17 396.549 358.17 387.202Z" fill="#E3E0EA"/>
<path d="M336.298 385.701H348.038V384.447C348.031 383.944 347.826 383.463 347.466 383.111C347.107 382.759 346.622 382.563 346.119 382.566H342.056C341.903 382.566 341.755 382.515 341.634 382.422L339.12 380.464C338.781 380.201 338.364 380.058 337.935 380.057H334.517C334.013 380.052 333.528 380.248 333.168 380.601C332.809 380.953 332.603 381.434 332.598 381.938V393.008L334.466 387.026C334.592 386.639 334.837 386.303 335.166 386.065C335.495 385.827 335.892 385.699 336.298 385.701Z" fill="#341477"/>
<path d="M350.047 386.955H336.299C336.16 386.952 336.024 386.993 335.911 387.072C335.797 387.151 335.711 387.264 335.665 387.394L333.369 394.724C333.426 394.762 333.476 394.799 333.538 394.837C333.592 394.869 333.648 394.897 333.706 394.921C333.783 394.956 333.863 394.984 333.945 395.005C333.995 395.018 334.039 395.037 334.089 395.049C334.218 395.078 334.351 395.095 334.484 395.1H346.447C346.854 395.102 347.25 394.975 347.579 394.737C347.908 394.499 348.154 394.163 348.279 393.776L350.067 388.131C350.193 387.748 350.186 387.334 350.047 386.955Z" fill="#341477"/>
<path d="M455.948 387.202C455.948 377.856 448.371 370.279 439.025 370.279C429.678 370.279 422.102 377.856 422.102 387.202C422.102 396.549 429.678 404.125 439.025 404.125C448.371 404.125 455.948 396.549 455.948 387.202Z" fill="#E3E0EA"/>
<path d="M438.73 382.845L434.925 385.634L431.127 382.845L434.925 380.058L438.73 382.845Z" fill="#341477"/>
<path d="M438.73 388.421L434.932 391.208L431.127 388.421L434.925 385.634L438.73 388.421Z" fill="#341477"/>
<path d="M446.33 388.421L442.532 391.208L438.734 388.421L442.532 385.634L446.33 388.421Z" fill="#341477"/>
<path d="M446.333 382.845L442.535 385.632L438.73 382.845L442.528 380.058L446.333 382.845Z" fill="#341477"/>
<path d="M438.73 389.526L436.711 392.314L438.73 395.101L442.528 392.314L438.73 389.526Z" fill="#341477"/>
<path d="M434.93 392.312L438.728 395.1V389.523L434.93 392.312Z" fill="#341477"/>
<path d="M487.915 370.279C478.569 370.279 470.992 377.856 470.992 387.202C470.992 396.548 478.569 404.125 487.915 404.125C497.262 404.125 504.838 396.548 504.838 387.202C504.838 377.856 497.262 370.279 487.915 370.279Z" fill="#E3E0EA"/>
<path d="M481.606 390.446C481.601 391.123 481.799 391.785 482.173 392.348C482.547 392.912 483.081 393.351 483.706 393.609C484.331 393.868 485.019 393.934 485.682 393.799C486.345 393.664 486.952 393.335 487.427 392.853L489.71 390.57C490.031 390.256 490.285 389.881 490.459 389.467C490.633 389.053 490.723 388.608 490.723 388.159C490.723 387.71 490.633 387.265 490.459 386.851C490.285 386.437 490.031 386.062 489.71 385.748L489.683 385.726C489.51 385.596 489.297 385.533 489.081 385.547C488.865 385.562 488.662 385.653 488.507 385.804C488.353 385.957 488.258 386.161 488.242 386.378C488.226 386.595 488.289 386.81 488.419 386.984L488.43 386.998L488.442 387.01C488.742 387.316 488.91 387.728 488.91 388.157C488.91 388.586 488.742 388.998 488.442 389.305L486.16 391.588C485.855 391.883 485.446 392.047 485.021 392.043C484.596 392.04 484.19 391.87 483.89 391.57C483.589 391.27 483.418 390.864 483.414 390.44C483.409 390.015 483.572 389.606 483.866 389.3L485.375 387.857L485.388 387.839C485.517 387.665 485.578 387.451 485.562 387.236C485.546 387.02 485.453 386.818 485.3 386.665C485.147 386.513 484.944 386.421 484.729 386.405C484.514 386.389 484.3 386.45 484.126 386.577L484.101 386.598L482.597 388.031C481.961 388.673 481.604 389.54 481.606 390.444V390.446Z" fill="#341477"/>
<path d="M485.734 386.319C485.737 387.221 486.095 388.087 486.733 388.726L486.746 388.74L486.763 388.751C486.937 388.878 487.15 388.939 487.366 388.923C487.581 388.907 487.783 388.815 487.936 388.663C488.089 388.51 488.182 388.308 488.198 388.092C488.214 387.877 488.153 387.663 488.024 387.489L488.013 387.474L488.001 387.462C487.701 387.155 487.533 386.743 487.533 386.314C487.533 385.885 487.701 385.473 488.001 385.167L490.283 382.886C490.586 382.582 490.998 382.411 491.428 382.41C491.857 382.41 492.27 382.58 492.574 382.883C492.878 383.187 493.049 383.598 493.05 384.028C493.051 384.458 492.88 384.87 492.577 385.174L491.067 386.617L491.053 386.635C490.925 386.809 490.863 387.023 490.879 387.238C490.896 387.454 490.989 387.656 491.142 387.809C491.295 387.961 491.497 388.053 491.713 388.069C491.928 388.086 492.142 388.025 492.316 387.897L492.341 387.876L493.838 386.442C494.477 385.802 494.837 384.935 494.837 384.031C494.837 383.584 494.749 383.14 494.578 382.727C494.406 382.313 494.155 381.937 493.839 381.621C493.522 381.304 493.147 381.053 492.733 380.882C492.32 380.71 491.876 380.622 491.429 380.622C490.981 380.622 490.538 380.71 490.124 380.881C489.711 381.052 489.335 381.303 489.018 381.62L486.733 383.906C486.095 384.546 485.736 385.412 485.734 386.316V386.319Z" fill="#341477"/>
<path d="M407.061 387.202C407.061 377.856 399.484 370.279 390.138 370.279C380.792 370.279 373.215 377.856 373.215 387.202C373.215 396.549 380.792 404.125 390.138 404.125C399.484 404.125 407.061 396.549 407.061 387.202Z" fill="#E3E0EA"/>
<path d="M394.166 392.057L393.016 390.07H398.697L394.168 392.06L394.166 392.057ZM398.23 389.072H392.438L390.784 386.223L390.606 385.915L390.135 385.104H390.124L387.211 380.208V380.057H393.061L398.232 389.07L398.23 389.072ZM388.961 385.104H387.211V382.158L388.96 385.104H388.961Z" fill="#341477"/>
<path d="M395.926 395.099H385.431L388.327 390.03H398.781L395.926 395.099ZM384.342 394.993V390.03H387.177L384.342 394.99V394.993Z" fill="#341477"/>
<path d="M384.343 395.098L381.488 390.029L386.657 381.021L389.56 386.097L387.282 390.024L384.347 395.091L384.343 395.098Z" fill="#341477"/>
<path d="M309.282 387.202C309.282 377.856 301.705 370.279 292.359 370.279C283.012 370.279 275.436 377.856 275.436 387.202C275.436 396.549 283.012 404.125 292.359 404.125C301.705 404.125 309.282 396.549 309.282 387.202Z" fill="#E3E0EA"/>
<path d="M292.7 380.057C290.961 380.065 289.279 380.675 287.939 381.783C286.6 382.892 285.686 384.43 285.352 386.136C285.019 387.843 285.287 389.612 286.111 391.143C286.935 392.674 288.264 393.872 289.872 394.533C291.48 395.195 293.267 395.279 294.93 394.772C296.593 394.264 298.029 393.196 298.993 391.749C299.957 390.302 300.39 388.566 300.219 386.836C300.047 385.106 299.282 383.489 298.052 382.259C297.349 381.558 296.514 381.003 295.595 380.625C294.677 380.247 293.693 380.054 292.7 380.057ZM296.134 388.299H293.387V391.047C293.39 391.139 293.374 391.231 293.341 391.317C293.308 391.403 293.258 391.481 293.194 391.547C293.13 391.614 293.053 391.666 292.968 391.702C292.883 391.738 292.792 391.757 292.7 391.757C292.608 391.757 292.517 391.738 292.432 391.702C292.347 391.666 292.27 391.614 292.206 391.547C292.142 391.481 292.092 391.403 292.059 391.317C292.026 391.231 292.01 391.139 292.013 391.047V388.298H289.266C289.087 388.293 288.918 388.218 288.794 388.09C288.67 387.961 288.601 387.79 288.601 387.612C288.601 387.433 288.67 387.262 288.794 387.134C288.918 387.006 289.087 386.931 289.266 386.925H292.013V384.178C292.019 384 292.094 383.831 292.222 383.707C292.35 383.583 292.522 383.513 292.7 383.513C292.878 383.513 293.05 383.583 293.178 383.707C293.306 383.831 293.381 384 293.387 384.178V386.926H296.135C296.313 386.932 296.482 387.006 296.606 387.135C296.73 387.263 296.799 387.434 296.799 387.612C296.799 387.791 296.73 387.962 296.606 388.09C296.482 388.218 296.312 388.293 296.134 388.299Z" fill="#341477"/>
<g filter="url(#filter0_d_297_588)">
<path d="M656 52H451C448.239 52 446 54.2386 446 57V200C446 202.761 448.239 205 451 205H656C658.761 205 661 202.761 661 200V57C661 54.2386 658.761 52 656 52Z" fill="white"/>
<path d="M656 52.5H451C448.515 52.5 446.5 54.5147 446.5 57V200C446.5 202.485 448.515 204.5 451 204.5H656C658.485 204.5 660.5 202.485 660.5 200V57C660.5 54.5147 658.485 52.5 656 52.5Z" stroke="#E0E0E0"/>
</g>
<path d="M636 86H472C469.791 86 468 87.7909 468 90C468 92.2091 469.791 94 472 94H636C638.209 94 640 92.2091 640 90C640 87.7909 638.209 86 636 86Z" fill="#EFEFF3"/>
<path d="M578 138H472C469.791 138 468 139.791 468 142C468 144.209 469.791 146 472 146H578C580.209 146 582 144.209 582 142C582 139.791 580.209 138 578 138Z" fill="#EFEFF3"/>
<path d="M578 163H472C469.791 163 468 164.791 468 167C468 169.209 469.791 171 472 171H578C580.209 171 582 169.209 582 167C582 164.791 580.209 163 578 163Z" fill="#EFEFF3"/>
<path d="M636 112H472C469.791 112 468 113.791 468 116C468 118.209 469.791 120 472 120H636C638.209 120 640 118.209 640 116C640 113.791 638.209 112 636 112Z" fill="#EFEFF3"/>
<path d="M408.261 146H90.8388C88.1664 146 86 148.239 86 151C86 153.761 88.1664 156 90.8388 156H408.261C410.934 156 413.1 153.761 413.1 151C413.1 148.239 410.934 146 408.261 146Z" fill="#EFEFF3"/>
<path d="M522 272H91C88.2386 272 86 274.239 86 277C86 279.761 88.2386 282 91 282H522C524.761 282 527 279.761 527 277C527 274.239 524.761 272 522 272Z" fill="#EFEFF3"/>
<path d="M408.261 188H90.8388C88.1664 188 86 190.239 86 193C86 195.761 88.1664 198 90.8388 198H408.261C410.934 198 413.1 195.761 413.1 193C413.1 190.239 410.934 188 408.261 188Z" fill="#EFEFF3"/>
<path d="M418 314H91C88.2386 314 86 316.239 86 319C86 321.761 88.2386 324 91 324H418C420.761 324 423 321.761 423 319C423 316.239 420.761 314 418 314Z" fill="#EFEFF3"/>
<path d="M522 230H91C88.2386 230 86 232.239 86 235C86 237.761 88.2386 240 91 240H522C524.761 240 527 237.761 527 235C527 232.239 524.761 230 522 230Z" fill="#EFEFF3"/>
<defs>
<filter id="filter0_d_297_588" x="386" y="0" width="335" height="273" filterUnits="userSpaceOnUse" color-interpolation-filters="sRGB">
<feFlood flood-opacity="0" result="BackgroundImageFix"/>
<feColorMatrix in="SourceAlpha" type="matrix" values="0 0 0 0 0 0 0 0 0 0 0 0 0 0 0 0 0 0 127 0" result="hardAlpha"/>
<feOffset dy="8"/>
<feGaussianBlur stdDeviation="30"/>
<feColorMatrix type="matrix" values="0 0 0 0 0 0 0 0 0 0 0 0 0 0 0 0 0 0 0.051 0"/>
<feBlend mode="normal" in2="BackgroundImageFix" result="effect1_dropShadow_297_588"/>
<feBlend mode="normal" in="SourceGraphic" in2="effect1_dropShadow_297_588" result="shape"/>
</filter>
</defs>
</svg>
