<svg width="50" height="50" viewBox="0 0 50 50" fill="none" xmlns="http://www.w3.org/2000/svg">
<g id="Group 39757">
<rect id="Rectangle 7945" width="50" height="50" rx="25" fill="#341477"/>
<g id="Group">
<path id="Vector" d="M31.1536 18.1914L31.8923 17.2728C32.9045 16.0171 32.6993 14.1824 31.4326 13.1768L31.3861 13.1387C30.1222 12.1331 28.2755 12.3369 27.2633 13.5953L26.5273 14.5113L31.1536 18.1914Z" fill="white"/>
<path id="Vector_2" d="M26.6589 25.9133C26.6835 26.1362 26.7957 26.3482 26.9844 26.5004C27.3647 26.8021 27.9201 26.7423 28.2238 26.3645L33.2987 20.0588C33.6078 19.6756 33.5394 19.1129 33.1427 18.814C32.7597 18.5259 32.2098 18.6074 31.9089 18.9798L31.4137 19.594L30.5656 18.92L30.5683 18.9172L25.9448 15.2344L14.1152 29.9251L18.7415 33.6052L29.4686 20.2871L30.3167 20.9612L26.8477 25.2692C26.6945 25.4567 26.6343 25.6904 26.6589 25.9133Z" fill="white"/>
<path id="Vector_3" d="M17.9727 34.2846L13.6146 30.8164C13.5434 31.0583 13.5079 31.2703 13.5079 31.2703L12.5093 36.0213C12.4382 36.3638 12.7884 36.6438 13.1084 36.497L17.5569 34.4857C17.5541 34.4857 17.7511 34.4041 17.9727 34.2846Z" fill="white"/>
<path id="Vector_4" d="M36.8659 35.1352C36.8276 35.1352 36.7921 35.1379 36.7537 35.1433L30.0319 36.0076C29.6872 36.0511 29.4465 35.676 29.6325 35.3825C29.7337 35.2276 29.8322 35.0699 29.9307 34.9123C30.1906 34.4937 29.8431 33.9365 29.3616 33.9365C29.3288 33.9365 29.296 33.9393 29.2604 33.9447L20.4511 35.2602L19.3978 35.4178L16.5252 35.8473C16.1997 35.8962 15.9808 36.1707 16.0082 36.4996C16.0191 36.6463 16.0793 36.785 16.175 36.8883C16.2872 37.0106 16.4432 37.0785 16.6128 37.0785C16.6456 37.0785 16.6784 37.0758 16.714 37.0704L27.214 35.5021C27.5724 35.4477 27.8186 35.85 27.608 36.1436C27.5396 36.236 27.4712 36.3311 27.4028 36.4235C27.214 36.679 27.2578 37.1057 27.4766 37.3259C27.5888 37.44 27.7311 37.4998 27.8815 37.4998C27.898 37.4998 27.9171 37.4998 27.9335 37.4971H27.9363H27.939L37.0027 36.3501H37.0055H37.0082C37.1641 36.3257 37.3009 36.236 37.3912 36.0973C37.4897 35.9451 37.5253 35.7576 37.4815 35.5891C37.4103 35.3145 37.1696 35.1352 36.8659 35.1352Z" fill="white"/>
</g>
</g>
</svg>
