<svg width="40" height="36" viewBox="0 0 40 36" fill="none" xmlns="http://www.w3.org/2000/svg">
<path d="M25.3798 24.1303C25.8898 24.4703 25.9998 25.1403 25.6398 25.6203L20.0598 33.1203C19.8698 33.3803 19.5798 33.5403 19.2498 33.5703C18.9198 33.5903 18.5998 33.4803 18.3698 33.2603L15.0198 30.0403C14.5898 29.6203 14.5898 28.9503 15.0198 28.5303C15.4598 28.1103 16.1598 28.1103 16.5998 28.5303L19.0098 30.8503L23.8298 24.3803C24.1898 23.9003 24.8798 23.7803 25.3798 24.1303Z" fill="#341477"/>
<path d="M20 0C14.48 0 9.48 2.24 5.86 5.86C2.24 9.48 0 14.48 0 20C0 25.52 2.24 30.52 5.86 34.14C6.53 34.81 7.24 35.43 8 36V12.68C8 11.2 9.25 10 10.79 10H15.81C18.89 10 21.39 12.4 21.39 15.36V18.04C21.39 19.51 22.64 20.71 24.18 20.71H26.97C30.05 20.71 32.55 23.11 32.55 26.07V35.56C33.11 35.12 33.64 34.64 34.14 34.14C37.76 30.52 40 25.52 40 20C40 8.95 31.05 0 20 0ZM27.57 18.57H24.89C24.6 18.57 24.36 18.33 24.36 18.03V15.36C24.36 13.48 23.67 11.77 22.53 10.45C27.39 11.72 31.21 15.54 32.48 20.4C31.16 19.26 29.45 18.57 27.57 18.57Z" fill="#341477"/>
</svg>
