<svg width="50" height="50" viewBox="0 0 50 50" fill="none" xmlns="http://www.w3.org/2000/svg">
<g id="Group 39760">
<g id="Group 39691">
<rect id="Rectangle 7947" width="50" height="50" rx="25" fill="#341477"/>
<g id="Group 39665">
<g id="Group 39756">
<g id="Group 39664">
<path id="Vector" d="M31.6771 16.2668C31.7963 16.3304 31.9193 16.3596 32.0376 16.358C32.3193 16.3541 32.5735 16.1752 32.6796 15.8688L33.7584 12.7562C33.9092 12.3213 33.7047 11.7943 33.3018 11.5792C32.8989 11.3642 32.45 11.5421 32.2993 11.9771L31.2205 15.0897C31.0697 15.5247 31.2742 16.0517 31.6771 16.2668Z" fill="white"/>
<path id="Vector_2" d="M38.3336 24.5421L35.4496 23.0033C35.0466 22.7884 34.5978 22.9666 34.4471 23.4016C34.2964 23.8366 34.5011 24.3635 34.904 24.5785L37.788 26.1174C37.9071 26.1808 38.0301 26.21 38.1483 26.2084C38.43 26.2045 38.6843 26.0255 38.7904 25.719C38.9412 25.2842 38.7366 24.7572 38.3336 24.5421Z" fill="white"/>
<path id="Vector_3" d="M33.9057 19.498C34.0492 19.8677 34.3763 20.0996 34.7025 20.0952C34.7819 20.0941 34.8611 20.079 34.9376 20.0487L37.7389 18.936C38.1303 18.7805 38.3031 18.2818 38.1246 17.8221C37.9462 17.3624 37.4843 17.1163 37.0927 17.2714L34.2914 18.3842C33.9001 18.5398 33.7273 19.0384 33.9057 19.498Z" fill="white"/>
</g>
<path id="Vector_4" d="M33.4583 30.6018C34.0251 30.6459 34.4804 30.1046 34.2943 29.5933L27.7559 11.629C27.5698 11.1178 26.873 10.9958 26.4672 11.3939C25.8672 12.2539 25.3371 13.1041 24.8242 13.9277C23.0174 16.8232 21.4316 19.3674 17.8268 20.7202L12.9907 22.4804C11.0313 23.1936 10.1235 25.621 10.9584 27.9149C11.7933 30.2088 14.049 31.4848 16.0085 30.7716L20.73 29.0531C24.4164 27.7113 27.2934 28.6485 30.5726 29.7179C31.4933 30.0181 32.4471 30.3283 33.4583 30.6018ZM25.4311 38.2965L24.4986 38.6359C23.9911 38.8207 23.4067 38.6108 23.0521 38.1139L18.2774 33.0756L22.9164 31.3872C23.2294 31.2732 23.5826 31.3095 23.8983 31.4881C24.214 31.6667 24.4663 31.9729 24.5997 32.3394L26.1086 36.485C26.3852 37.245 26.0804 38.0602 25.4311 38.2965Z" fill="white"/>
</g>
</g>
</g>
</g>
</svg>
